<svg xmlns="http://www.w3.org/2000/svg" version="1.1" xmlns:xlink="http://www.w3.org/1999/xlink" xmlns:svgjs="http://svgjs.com/svgjs" width="1122.000000pt" height="1122.000000pt"><svg version="1.0" xmlns="http://www.w3.org/2000/svg" width="1122.000000pt" height="1122.000000pt" viewBox="0 0 1122.000000 1122.000000" preserveAspectRatio="xMidYMid meet">
<metadata>
Created by potrace 1.14, written by Peter Selinger 2001-2017
</metadata>
<g transform="translate(0.000000,1122.000000) scale(0.100000,-0.100000)" fill="#000000" stroke="none">
<path d="M7588 7563 l-3 -2826 -1645 2749 c-1620 2708 -1645 2750 -1648 2807
l-4 57 -1309 0 -1309 0 0 -4725 0 -4725 1063 2 1062 3 5 2907 5 2907 1877
-2922 c1033 -1607 1892 -2946 1911 -2974 l33 -53 36 25 37 25 1135 0 1136 0 0
4785 0 4785 -1190 0 -1190 0 -2 -2827z m1892 -1958 l0 -4295 -803 0 c-753 0
-805 1 -819 18 -8 9 -941 1459 -2073 3222 -1132 1763 -2059 3206 -2061 3208
-1 2 -83 -49 -182 -112 -131 -85 -188 -116 -211 -116 l-31 0 0 -3065 0 -3065
-570 0 -570 0 0 4225 0 4225 897 -2 897 -3 1818 -3038 c1742 -2911 1818 -3041
1818 -3087 0 -47 1 -48 33 -51 17 -2 128 -3 245 -1 l212 3 0 3115 0 3114 700
0 700 0 0 -4295z"></path>
</g>
</svg><style>@media (prefers-color-scheme: light) { :root { filter: none; } }
</style></svg>